<svg xmlns="http://www.w3.org/2000/svg" xmlns:xlink="http://www.w3.org/1999/xlink" width="100%" height="100%" viewBox="0 0  1060 730" preserveAspectRatio="xMinYMin meet" ><rect id="svgEditorBackground" x="0" y="0" width="1060" height="730" style="fill: none; stroke: none;"/><g id="e11_group" transform="matrix(1.42378 -0.0121424 0.0121424 1.42378 -8.92866 -39.3261)"><circle id="e1_circle" cx="279.267000" cy="425.403000" style="stroke:black;stroke-width:20px;fill:none" r="59.600000"/><circle id="e2_circle" cx="490.467000" cy="420.398000" style="stroke:black;stroke-width:20px;fill:none" r="59.600000"/><path d="M217.206997,427.407696a77.57,77.57,0,1,1,0,-155.15" style="fill:none;stroke:black;stroke-width:20px" id="e3_circleArc"/><path d="M215.206997,271.257696a178.777628,178.777628,0,1,1,357.34,4" style="fill:none;stroke:black;stroke-width:20px" id="e4_circleArc"/><path d="M553.524277,422.402974a76.373513,76.373513,0,1,0,16.015109,-149.144334" style="fill:none;stroke:black;stroke-width:20px" id="e5_circleArc"/><path d="M238.22,268.25a150.49,150.49,0,0,1,121.11,-150.14" style="fill:none;stroke:black;stroke-width:20px" id="e6_circleArc"/><path d="M421.4,119.11a139.88,139.88,0,0,1,128.12,143.14" style="fill:none;stroke:black;stroke-width:20px" id="e7_circleArc"/><polyline style="stroke:black;fill:none;stroke-width:20px" id="e8_polyline" points="236.22,264.25,353.33,262.25,359.34,119.11"/><line id="e9_line" x1="421.40" y1="122.11" x2="422.40" y2="259.25" style="stroke:black;fill:none;stroke-width:20px"/><line id="e10_line" x1="422.40" y1="257.24" x2="548.52" y2="261.25" style="stroke:black;fill:none;stroke-width:20px"/></g></svg>